<svg width="25" height="16" viewBox="0 0 25 16" fill="none" xmlns="http://www.w3.org/2000/svg">
<path d="M24.2516 0.000244141H0.251953V16.0002H24.2516V0.000244141Z" fill="#F0F0F0"/>
<path d="M13.7517 0.00012207H10.7518V6.49999H0.251953V9.49994H10.7518V15.9998H13.7517V9.49994H24.2516V6.49999H13.7517V0.00012207Z" fill="#D80027"/>
<path d="M18.71 10.7826L24.2512 13.8611V10.7826H18.71Z" fill="#0052B4"/>
<path d="M14.8604 10.783L24.2515 16.0003V14.5249L17.516 10.783H14.8604Z" fill="#0052B4"/>
<path d="M21.75 15.9999L14.8604 12.172V15.9999H21.75Z" fill="#0052B4"/>
<path d="M14.8613 10.7826L24.2525 15.9999V14.5246L17.517 10.7826H14.8613Z" fill="#F0F0F0"/>
<path d="M14.8613 10.7826L24.2525 15.9999V14.5246L17.517 10.7826H14.8613Z" fill="#D80027"/>
<path d="M4.48662 10.7823L0.251953 13.135V10.7823H4.48662Z" fill="#0052B4"/>
<path d="M9.64258 11.4458V15.9997H1.44629L9.64258 11.4458Z" fill="#0052B4"/>
<path d="M6.98746 10.7826L0.251953 14.5246V15.9999L9.64312 10.7826H6.98746Z" fill="#D80027"/>
<path d="M5.79319 5.21731L0.251953 2.13879V5.21731H5.79319Z" fill="#0052B4"/>
<path d="M9.64312 5.21754L0.251953 0.000244141V1.47556L6.98746 5.21754H9.64312Z" fill="#0052B4"/>
<path d="M2.75293 0L9.6426 3.82794V0H2.75293Z" fill="#0052B4"/>
<path d="M9.64312 5.21741L0.251953 0.00012207V1.47544L6.98746 5.21741H9.64312Z" fill="#F0F0F0"/>
<path d="M9.64312 5.21741L0.251953 0.00012207V1.47544L6.98746 5.21741H9.64312Z" fill="#D80027"/>
<path d="M20.0166 5.21737L24.2513 2.86475V5.21737H20.0166Z" fill="#0052B4"/>
<path d="M14.8613 4.554V0.00012207H23.0576L14.8613 4.554Z" fill="#0052B4"/>
<path d="M17.517 5.21741L24.2525 1.47544V0.00012207L14.8613 5.21741H17.517Z" fill="#D80027"/>
</svg>
