<svg width="22" height="21" viewBox="0 0 22 21" fill="none" xmlns="http://www.w3.org/2000/svg">
<path d="M14.2006 10.4286C14.2006 12.317 12.6604 13.8571 10.772 13.8571C8.88365 13.8571 7.34347 12.317 7.34347 10.4286C7.34347 8.54018 8.88365 7 10.772 7C12.6604 7 14.2006 8.54018 14.2006 10.4286ZM16.0488 10.4286C16.0488 7.50893 13.6917 5.15178 10.772 5.15178C7.8524 5.15178 5.49526 7.50893 5.49526 10.4286C5.49526 13.3482 7.8524 15.7054 10.772 15.7054C13.6917 15.7054 16.0488 13.3482 16.0488 10.4286ZM17.4953 4.9375C17.4953 4.25446 16.9462 3.70536 16.2631 3.70536C15.5801 3.70536 15.031 4.25446 15.031 4.9375C15.031 5.62053 15.5801 6.16964 16.2631 6.16964C16.9462 6.16964 17.4953 5.62053 17.4953 4.9375ZM10.772 1.99107C12.272 1.99107 15.4863 1.87053 16.839 2.40625C17.3078 2.59375 17.656 2.82143 18.0176 3.18303C18.3792 3.54464 18.6069 3.89286 18.7944 4.36161C19.3301 5.71428 19.2095 8.92857 19.2095 10.4286C19.2095 11.9286 19.3301 15.1429 18.7944 16.4955C18.6069 16.9643 18.3792 17.3125 18.0176 17.6741C17.656 18.0357 17.3078 18.2634 16.839 18.4509C15.4863 18.9866 12.272 18.8661 10.772 18.8661C9.27204 18.8661 6.05776 18.9866 4.70508 18.4509C4.23633 18.2634 3.88811 18.0357 3.52651 17.6741C3.1649 17.3125 2.93722 16.9643 2.74972 16.4955C2.21401 15.1429 2.33454 11.9286 2.33454 10.4286C2.33454 8.92857 2.21401 5.71428 2.74972 4.36161C2.93722 3.89286 3.1649 3.54464 3.52651 3.18303C3.88811 2.82143 4.23633 2.59375 4.70508 2.40625C6.05776 1.87053 9.27204 1.99107 10.772 1.99107ZM21.0578 10.4286C21.0578 9.00893 21.0712 7.60268 20.9908 6.18303C20.9104 4.53571 20.5354 3.07589 19.3301 1.87053C18.1247 0.665177 16.6649 0.290177 15.0176 0.209821C13.5979 0.129464 12.1917 0.142856 10.772 0.142856C9.3524 0.142856 7.94615 0.129464 6.52651 0.209821C4.87919 0.290177 3.41936 0.665177 2.21401 1.87053C1.00865 3.07589 0.63365 4.53571 0.553292 6.18303C0.472935 7.60268 0.486328 9.00893 0.486328 10.4286C0.486328 11.8482 0.472935 13.2545 0.553292 14.6741C0.63365 16.3214 1.00865 17.7812 2.21401 18.9866C3.41936 20.192 4.87919 20.567 6.52651 20.6473C7.94615 20.7277 9.3524 20.7143 10.772 20.7143C12.1917 20.7143 13.5979 20.7277 15.0176 20.6473C16.6649 20.567 18.1247 20.192 19.3301 18.9866C20.5354 17.7812 20.9104 16.3214 20.9908 14.6741C21.0712 13.2545 21.0578 11.8482 21.0578 10.4286Z" fill="black"/>
</svg>
