<svg width="22" height="21" viewBox="0 0 22 21" fill="none" xmlns="http://www.w3.org/2000/svg">
<path d="M3.66044 17.3661V8.07143H6.75419V17.3661H3.66044ZM6.95508 5.20536C6.95508 6.08928 6.28544 6.8125 5.20061 6.8125H5.18722C4.14258 6.8125 3.47294 6.08928 3.47294 5.20536C3.47294 4.29464 4.16936 3.59821 5.2274 3.59821C6.28544 3.59821 6.94169 4.29464 6.95508 5.20536ZM14.7899 17.3661V12.3973C14.7899 11.1384 14.3479 10.2946 13.2363 10.2946C12.3792 10.2946 11.8703 10.8705 11.6426 11.4196C11.5622 11.6205 11.5488 11.9018 11.5488 12.1696V17.3661H8.45508C8.49526 8.94196 8.45508 8.07143 8.45508 8.07143H11.5488V9.42411H11.522C11.9238 8.78125 12.6604 7.85714 14.3212 7.85714C16.3569 7.85714 17.8837 9.18304 17.8837 12.0357V17.3661H14.7899ZM21.0578 4C21.0578 1.87053 19.3301 0.142856 17.2006 0.142856H4.34347C2.21401 0.142856 0.486328 1.87053 0.486328 4V16.8571C0.486328 18.9866 2.21401 20.7143 4.34347 20.7143H17.2006C19.3301 20.7143 21.0578 18.9866 21.0578 16.8571V4Z" fill="black"/>
</svg>
