<svg width="17" height="18" viewBox="0 0 17 18" fill="none" xmlns="http://www.w3.org/2000/svg">
<path d="M15.127 2.7777H7.6226L6.87216 0.526367H1.61905C0.793563 0.526367 0.118164 1.20177 0.118164 2.02725V13.2839C0.118164 14.1094 0.793563 14.7848 1.61905 14.7848H7.6226L8.37304 17.0361H15.127C15.9525 17.0361 16.6279 16.3607 16.6279 15.5352V4.27858C16.6279 3.4531 15.9525 2.7777 15.127 2.7777ZM4.62083 11.783C2.5496 11.783 0.868608 10.102 0.868608 8.0308C0.868608 5.95958 2.5496 4.27858 4.62083 4.27858C5.63392 4.27858 6.48193 4.65381 7.13481 5.25416L6.14423 6.20722C5.85906 5.93706 5.36376 5.62188 4.62083 5.62188C3.31505 5.62188 2.25693 6.70252 2.25693 8.0308C2.25693 9.35909 3.31505 10.4397 4.62083 10.4397C6.12922 10.4397 6.75208 9.35909 6.81212 8.63116H4.62083V7.3479H8.1329C8.18543 7.58054 8.22295 7.80567 8.22295 8.11335C8.22295 10.2596 6.78961 11.783 4.62083 11.783ZM9.25106 7.71562H12.0277C11.705 8.65367 11.1947 9.53919 10.4893 10.3197C10.2567 10.057 10.039 9.77934 9.84391 9.49417L9.25106 7.71562ZM15.5023 15.16C15.5023 15.5728 15.1646 15.9105 14.7518 15.9105H9.87393L11.3748 14.0344L10.5944 11.708L12.9207 14.0344L13.6111 13.3439L11.1347 10.905L11.1497 10.89C11.9977 9.95194 12.598 8.8713 12.9507 7.72312H14.3766V6.74754H10.9771V5.77947H10.009V6.74754H8.92837L7.9678 3.90336H14.7518C15.1646 3.90336 15.5023 4.24106 15.5023 4.65381V15.16Z" fill="black"/>
</svg>
