<svg width="25" height="20" viewBox="0 0 25 20" fill="none" xmlns="http://www.w3.org/2000/svg">
<path d="M22.002 5.125C22.9395 4.42188 23.7832 3.57812 24.4395 2.59375C23.5957 2.96875 22.6113 3.25 21.627 3.34375C22.6582 2.73438 23.4082 1.79688 23.7832 0.625C22.8457 1.1875 21.7676 1.60938 20.6895 1.84375C19.752 0.859375 18.4863 0.296875 17.0801 0.296875C14.3613 0.296875 12.1582 2.5 12.1582 5.21875C12.1582 5.59375 12.2051 5.96875 12.2988 6.34375C8.2207 6.10938 4.56445 4.14062 2.12695 1.1875C1.70508 1.89062 1.4707 2.73438 1.4707 3.67188C1.4707 5.35938 2.31445 6.85938 3.67383 7.75C2.87695 7.70312 2.08008 7.51562 1.42383 7.14062V7.1875C1.42383 9.57812 3.11133 11.5469 5.36133 12.0156C4.98633 12.1094 4.51758 12.2031 4.0957 12.2031C3.76758 12.2031 3.48633 12.1562 3.1582 12.1094C3.76758 14.0781 5.5957 15.4844 7.75195 15.5312C6.06445 16.8438 3.95508 17.6406 1.6582 17.6406C1.23633 17.6406 0.861328 17.5938 0.486328 17.5469C2.64258 18.9531 5.2207 19.75 8.0332 19.75C17.0801 19.75 22.002 12.2969 22.002 5.78125C22.002 5.54688 22.002 5.35938 22.002 5.125Z" fill="black"/>
</svg>
